<?xml version="1.0" encoding="utf-8" ?><svg xmlns="http://www.w3.org/2000/svg" xmlns:xlink="http://www.w3.org/1999/xlink" width="1512" height="1512" viewBox="0 0 1512 1512"><path fill="#0066FE" transform="scale(1.47656 1.47656)" d="M814.265 38.6348C843.652 36.3368 856.261 54.445 873.93 74.3074L903.614 107.399C921.634 127.031 939.505 146.799 957.226 166.701C963.793 174.05 978.208 189.459 983.464 197.106C984.345 202.99 983.992 220.89 984.013 227.557C975.689 237.042 949.445 254.88 938.059 263.322L856.297 324.221L725.987 421.824C706.353 436.599 684.924 453.697 665.124 467.695C670.425 474.309 677.537 482.075 683.191 488.524L722.656 533.135L832.349 657.707L871.507 702.067C877.268 708.605 886.862 719.058 891.557 725.819C893.591 728.747 899.735 746.167 901.249 750.251L918.848 797.305L964.484 918.983C971.17 936.799 978.053 954.53 984.669 972.364C985.674 975.073 987.151 979.678 985.647 982.423C984.835 983.88 983.419 984.901 981.781 985.212C978.998 985.767 975.719 984.831 973.309 983.498C959.616 975.925 945.947 967.733 932.482 959.798L851.489 911.784L780.373 869.89C769.492 863.544 751.965 854.124 741.996 847.42C738.952 838.054 722.414 821.344 715.402 813.599C705.216 802.364 695.091 791.074 685.027 779.729L571.673 652.518L536.115 612.63C530.476 606.366 522.959 598.78 517.767 592.418C466.374 631.21 414.7 669.628 362.748 707.668C325.469 736.464 286.13 765.421 248.373 793.815L206.807 825.064C198.724 831.187 190.723 837.391 182.497 843.323C177.893 846.644 174.596 847.441 170.247 842.98C159.536 831.99 149.014 820.794 138.489 809.622L78.7008 746.028C69.2125 735.878 59.6445 725.802 49.9975 715.802C46.1987 711.929 31.7696 697.777 29.2721 693.876C22.9436 680.053 26.1311 655.989 27.6366 641.655C30.4277 615.082 46.9006 608.195 66.1468 593.917L123.616 551.099L260.115 449.072C285.816 429.758 311.588 409.47 337.513 390.582C322.285 372.694 306.648 355.195 291.223 337.483C283.451 328.558 276.318 318.363 267.379 310.603C261.286 305.314 251.997 303.351 244.964 298.732C231.848 290.121 216.507 274.482 205.409 263.155C196.445 254.007 182.799 240.01 177.541 228.531C172.985 218.586 159.884 123.777 160.059 110.267C160.31 91.0016 169.014 73.2537 182.745 59.9727C197.447 45.7534 216.957 38.8089 237.308 39.3088C258.145 39.8205 282.59 53.6829 301.514 62.1757C318.71 69.893 341.775 78.671 357.18 89.0927C376.821 102.38 401.376 142.072 411.711 163.559C413.923 168.158 415.976 172.849 417.583 177.697C419.896 184.675 421.398 192.84 425.472 199.035C430.422 206.562 437.714 213.43 443.7 220.225C458.982 237.913 474.695 255.224 490.824 272.142C506.444 259.108 527.068 245.178 543.839 232.664L653.023 151.055L741.404 84.9152L774.999 59.7951C788.236 49.9916 797.479 40.9135 814.265 38.6348ZM777.471 76.8202C765.426 85.3911 752.907 95.8038 741.159 103.887C751.929 115.066 764.052 129.415 774.455 141.136L791.113 160.203C793.895 163.42 799.46 168.44 799.733 172.806C799.957 176.388 795.615 179.329 792.122 179.194C790.172 179.128 788.3 178.414 786.8 177.166C782.483 173.619 773.946 163.309 769.792 158.721C756.425 143.957 743.376 127.208 729.679 112.893C715.47 124.461 697.066 136.092 682.186 147.706C690.085 158.06 699.068 167.757 707.665 177.541C711.983 182.455 716.976 187.449 720.401 193.047C721.331 194.568 721.97 195.958 721.761 197.782C721.567 199.473 720.638 200.837 719.368 201.908C717.652 203.357 715.435 204.324 713.161 204.016C708.322 203.359 675.004 163.219 669.956 156.925C655.633 167.185 641.523 177.738 627.634 188.578C636.372 198.241 645.06 207.95 653.697 217.703C659.459 224.215 668.907 234.527 672.986 241.925C669.187 250.97 663.878 251.701 657.145 244.715C651.73 239.097 646.808 232.966 641.701 227.062C633.148 217.206 624.465 207.463 615.656 197.835C606.504 205.302 596.582 212.165 587.125 219.254C583.165 222.222 578.897 225.26 574.621 227.724C591.593 250.64 613.345 270.581 631.453 292.617C634.601 296.448 636.133 300.969 631.611 304.431C624.648 309.763 618.107 299.881 614.255 295.563L600.95 280.763C588.931 267.46 573.743 251.483 562.707 237.823C554.963 243.645 546.971 249.222 539.198 255.038C531.295 260.951 523.257 267.429 515.036 272.848C521.284 280.111 553.507 317.457 554.469 322.988C554.717 324.416 554.188 326.181 553.314 327.312C551.313 329.903 547.881 330.643 544.843 331.16C541.902 327.306 535.238 320.26 531.735 316.281C524.378 307.26 509.581 286.978 500.762 280.753C504.354 291.149 522.876 307.412 530.844 316.752C534.865 321.391 539.929 327.327 544.332 331.594C546.734 334.09 549.288 336.95 551.533 339.582C571.871 363.272 592.696 386.578 613.545 409.821C622.42 419.714 631.394 430.52 640.628 440.01C654.236 428.152 673.947 414.141 688.743 403.177L754.462 353.945L878.047 261.976C907.012 240.399 935.372 218.508 964.863 197.657C935.677 166.307 906.874 134.602 878.462 102.55C871.834 95.2373 865.282 87.8565 858.806 80.409C849.617 69.8842 840.074 56.497 825.634 53.8833C811.127 51.2573 800.646 59.8269 789.569 67.5849C799.618 81.8475 814.015 94.8191 824.691 108.698C831.098 117.027 821.412 125.819 813.362 117.529C808.581 112.606 804.358 107.78 799.824 102.595C792.297 94.0695 784.846 85.4775 777.471 76.8202ZM271.845 458.436C286.449 476.219 302.828 492.937 317.147 510.708C322.521 517.378 338.704 530.043 327.381 536.175C322.881 538.613 320.618 535.735 317.505 532.723C302.048 515.549 287.129 497.862 271.766 480.593C268.036 476.4 264.025 471.989 260.494 467.641L231.506 489.477C226.455 493.294 218.234 499.735 213.144 502.79C221.182 511.776 229.145 520.829 237.031 529.948C242.323 535.959 247.657 541.731 252.554 548.081C257.855 554.954 255.209 559.162 247.331 561.227C235.838 554.178 212.306 523.245 201.537 511.762L174.21 532.355C170.169 535.387 162.591 541.316 158.607 543.712C167.182 554.161 176.01 564.401 185.081 574.423C190.01 579.915 204.734 593.915 204.925 601.76C205.042 606.54 196.691 609.344 193.421 605.277C187.711 599.663 182.288 593.237 176.943 587.226L146.474 553.048C132.282 563.302 118.199 573.708 104.229 584.262C115.537 597.549 126.334 609.922 138.393 622.625C147.166 632.229 156.257 641.694 164.226 651.986C165.219 653.269 166.094 654.796 166.007 656.481C165.697 662.487 157.444 665.41 153.328 661.192C145.782 653.458 138.668 645.103 131.497 636.988L92.2936 593.303C79.9367 601.778 68.0751 610.525 56.1994 619.648C46.4951 627.104 45.2284 630.31 41.6014 641.543C62.4737 665.36 84.1123 688.011 105.823 711.059L179.898 790.187C186.55 785.615 193.699 779.855 200.205 774.936C208.278 768.902 216.382 762.91 224.518 756.961L323.051 683.624L400.173 626.322C421.975 610.339 445.677 593.659 466.692 576.724C461.737 572.309 455.181 567.873 449.801 563.845C437.666 554.761 425.078 546.244 412.61 537.619C381.139 515.656 349.531 493.891 317.787 472.324C307.239 465.074 294.023 456.987 284.098 449.803C279.855 453.033 276.26 455.504 271.845 458.436ZM254.056 201.797C269.919 214.587 280.183 223.183 298.054 233.257C323.809 206.82 362.739 180.85 399.565 174.084C394.741 164.315 389.423 154.797 383.632 145.567C379.396 138.869 374.49 132.057 370.458 125.36C327.584 144.017 288.216 169.869 254.056 201.797ZM243.596 190.699C282.381 157.58 312.789 133.303 360.507 112.627C355.984 108.738 351.415 104.902 346.801 101.121C337.754 105.46 328.153 108.609 318.574 113.532C287.506 129.498 253.015 153.272 227.531 177.082C232.306 181.067 239.247 186.524 243.596 190.699ZM329.792 91.6153C317.574 86.5603 305.455 81.2685 293.443 75.7429C274.239 66.9479 249.986 52.5796 228.758 54.3867C213.415 55.6929 197.746 64.3715 187.916 76.1688C183.537 81.4235 175.673 96.5492 176.31 103.346C183.69 122.67 200.522 153.639 216.166 167.174C253.923 131.751 283.761 113.61 329.792 91.6153ZM853.111 757.822C850.938 771.827 851.144 779.122 841.439 791.678C832.097 803.764 820.887 809.607 805.957 811.605C811.122 818.49 823.818 830.087 830.316 836.147L866.603 869.868C878.826 881.396 891.195 892.77 903.706 903.985C906.818 906.774 915.347 914.863 918.412 917.058C918.786 916.775 919.584 916.029 919.96 915.693C920.405 909.021 890.015 877.289 892.112 868.346C896.853 848.132 913.955 878.56 916.425 882.321C921.871 890.724 927.476 899.023 933.236 907.214C936.474 904.203 938.482 902.513 942.023 899.881C940.275 896.404 938.347 891.929 937.002 888.262C922.175 847.819 905.792 807.381 891.942 766.641L891.24 766.777C876.862 769.438 865.01 766.165 853.111 757.822Z"/><path fill="#0066FE" transform="scale(1.47656 1.47656)" d="M856.144 135.158C905.329 131.84 932.492 200.776 883.126 211.48C833.901 216.161 804.004 144.399 856.144 135.158Z"/><path fill="#ABD2FC" transform="scale(1.47656 1.47656)" d="M857.969 149.137C884.74 148.702 912.426 186.341 881.477 197.615C848.298 197.808 826.987 155.57 857.969 149.137Z"/><path fill="#4096FE" transform="scale(1.47656 1.47656)" d="M360.585 205.39C362.631 205.926 381.925 228.608 384.451 231.473L437.213 291.941L709.909 599.822L791.204 691.499C803.594 705.464 824.868 728.082 835.358 742.411C835.934 753.292 839.539 759.02 836.1 770.761C833.313 780.27 826.853 788.278 818.148 793.014C806.379 799.291 797.278 795.656 785.47 792.144C780.57 787.699 774.052 779.839 769.515 774.696C762.659 766.967 755.746 759.288 748.776 751.661L668.516 662.124L417.55 380.474L341.207 293.994C328.999 280.034 315.79 263.159 303.07 250.207C323.251 229.914 336.543 220.065 360.585 205.39Z"/><path fill="#4096FE" transform="scale(1.47656 1.47656)" d="M292.969 262.296C294.306 262.959 300.392 270.495 301.721 272.031L320.601 293.541L399.448 383.143L700.261 720.822L754.653 780.758C761.983 788.94 769.944 797.618 776.894 806.151C778.333 807.918 779.771 812.655 779.924 814.988C780.596 825.221 779.977 830.459 773.817 838.571C767.95 838.613 764.844 838.772 759.21 837.255C750.601 831.097 731.193 808.539 723.074 799.54L643.499 710.074L390.769 427.424L316.809 343.895C301.131 325.95 287.104 308.39 270.393 291.125C277.18 281.643 284.834 270.627 292.969 262.296Z"/><path fill="#4096FE" transform="scale(1.47656 1.47656)" d="M398.212 190.617C398.843 190.526 398.959 190.659 399.647 190.837C408.196 199.791 418.657 212.875 427.158 222.606L488.586 292.396C562.177 374.442 635.254 456.948 707.811 539.91C745.277 582.875 782.985 625.627 820.934 668.165L857.557 709.849C863.504 716.648 871.792 725.708 876.986 732.748C879.46 736.102 883.109 747.288 886.097 752.902C878.401 752.807 874.931 752.386 867.796 749.746C852.434 742.113 834.945 718.581 823.551 705.509L776.806 652.597L616.102 470.679L461.104 295.487L411.322 239.324C399.137 225.583 386.989 212.18 375.374 197.933C383.45 194.158 389.579 192.386 398.212 190.617Z"/><path fill="#ABD2FC" transform="scale(1.47656 1.47656)" d="M347.244 401.278L441.078 506.978C456.124 523.917 474.882 543.241 488.894 560.507C481.673 565.921 474.167 571.735 466.692 576.724C461.737 572.309 455.181 567.873 449.801 563.845C437.666 554.761 425.078 546.244 412.61 537.619C381.139 515.656 349.531 493.891 317.787 472.324C307.239 465.074 294.023 456.987 284.098 449.803C293.436 442.519 303.209 435.815 312.481 428.502C317.811 434.622 345.5 469.005 350.39 470.012C352.34 470.414 354.714 469.106 356.101 467.836C357.213 466.817 358.266 465.391 358.348 463.827C358.67 457.64 329.537 426.272 323.994 419.447C331.861 413.548 339.743 407.643 347.244 401.278Z"/><path transform="scale(1.47656 1.47656)" d="M901.543 892.238C905.546 893.837 903.833 897.139 906.188 902.157C899.504 897.042 905.717 897.347 901.543 892.238Z"/><path fill="#ABD2FC" transform="scale(1.47656 1.47656)" d="M499.102 571.023C500.636 572.1 506.567 579.635 508.07 581.492C499.215 587.098 486.548 597.398 477.792 604.008C458.657 618.521 439.439 632.924 420.138 647.215L189.198 819.862L183.007 824.437L183.084 804.803C195.558 797.344 207.002 788.31 218.731 779.68L285.195 729.961L499.102 571.023Z"/><path fill="#ABD2FC" transform="scale(1.47656 1.47656)" d="M794.873 810.926C798.073 811.538 802.598 811.515 805.957 811.605C811.122 818.49 823.818 830.087 830.316 836.147L866.603 869.868C878.826 881.396 891.195 892.77 903.706 903.985C906.818 906.774 915.347 914.863 918.412 917.058C914.036 920.656 910.067 923.238 906.023 927.294C874.132 907.163 840.641 889.053 808.499 869.291C799.057 863.486 788.823 857.564 779.687 851.407C793.612 839.998 797.046 828.692 794.873 810.926Z"/><path fill="#ABD2FC" transform="scale(1.47656 1.47656)" d="M211.051 246.821C224.246 229.624 238.654 216.649 254.056 201.797C269.919 214.587 280.183 223.183 298.054 233.257C282.108 250.364 266.38 266.958 255.289 287.695C239.211 275.587 224.39 261.894 211.051 246.821Z"/><path fill="#ABD2FC" transform="scale(1.47656 1.47656)" d="M968.914 214.085C969.842 215.422 969.684 219.467 969.718 221.231C957.135 231.677 942.453 241.597 929.183 251.455L851.553 309.218L669.544 446.003C665.81 448.772 659.317 453.772 655.015 455.816C654.423 456.098 654.236 455.757 653.587 455.332L650.615 451.299C656.494 446.396 664.414 440.722 670.597 436.026L709.624 406.436C750.471 375.487 791.496 344.772 832.697 314.295C853.163 299.149 873.811 284.153 894.191 268.908C918.894 250.429 942.944 230.806 968.914 214.085Z"/><path fill="#ABD2FC" transform="scale(1.47656 1.47656)" d="M49.0431 672.195C51.7943 673.802 69.6609 694.057 73.1282 697.726L169.17 800.39C168.89 805.961 169.364 814.21 168.646 819.35C155.413 806.545 142.951 792.267 130.282 778.84L80.8208 727.223C69.7243 715.427 59.5825 703.816 47.8472 692.633C48.6284 685.84 48.8403 679.022 49.0431 672.195Z"/><path fill="#ABD2FC" transform="scale(1.47656 1.47656)" d="M186.762 199.753C183.919 186.907 182.742 172.382 180.844 159.309C179.147 147.613 176.889 135.705 175.763 123.986C175.329 119.476 174.907 107.452 176.31 103.346C183.69 122.67 200.522 153.639 216.166 167.174C204.213 178.786 197.408 186.683 186.762 199.753Z"/><path fill="#ABD2FC" transform="scale(1.47656 1.47656)" d="M227.531 177.082C232.306 181.067 239.247 186.524 243.596 190.699C241.815 192.586 238.991 194.979 236.986 196.75C223.629 208.55 212.069 221.411 200.754 235.163C197.15 231.134 193.361 225.818 190.385 221.331C198.944 205.479 214.407 189.396 227.531 177.082Z"/><path fill="#4096FE" transform="scale(1.47656 1.47656)" d="M946.073 914.944L946.589 915.109C948.432 917.922 951.773 927.005 953.137 930.552C957.038 940.616 960.801 950.733 964.425 960.9C959.107 957.761 953.773 954.65 948.423 951.567C939.543 946.599 929.084 940.1 920.589 934.603C925.675 929.433 939.884 919.232 946.073 914.944Z"/><path fill="#FAFCFE" fill-opacity="0.011764706" transform="scale(1.47656 1.47656)" d="M500.762 280.753C509.581 286.978 524.378 307.26 531.735 316.281L530.844 316.752C522.876 307.412 504.354 291.149 500.762 280.753Z"/><path fill="#ABD2FC" fill-opacity="0.14509805" transform="scale(1.47656 1.47656)" d="M531.735 316.281C535.238 320.26 541.902 327.306 544.843 331.16L544.332 331.594C539.929 327.327 534.865 321.391 530.844 316.752L531.735 316.281Z"/><path fill="#0066FE" transform="scale(1.47656 1.47656)" d="M572.415 768.969C574.179 769.18 576.408 769.544 577.881 770.59C579.422 771.684 579.566 773.81 579.789 775.536C580.607 781.894 580.992 826.958 578.221 829.992C577.225 831.083 575.471 831.665 574.042 831.575C571.874 831.437 570.138 830.547 568.738 828.923C568.509 827.366 568.717 827.758 568.041 826.434C564.104 827.336 561.782 831.126 556.906 832.021C551.419 833.028 546.84 831.288 542.259 828.48C528.148 815.749 531.251 789.098 551.757 785.325C557.552 784.259 563.865 789.128 568.067 792.861C567.873 785.681 566.045 773.41 572.415 768.969ZM559.716 821.477C574.858 812.468 568.84 794.324 553.156 796.53C549.299 798.648 546.762 800.626 545.357 805.097C544.294 808.436 544.652 812.065 546.346 815.132C549.268 820.352 554.088 821.836 559.716 821.477Z"/><path fill="#0066FE" transform="scale(1.47656 1.47656)" d="M518.973 769.425C520.842 769.437 523.72 769.584 525.007 771.172C527.624 774.402 527.138 822.069 525.746 827.978C525.371 829.57 524.595 830.898 523.019 831.593C521.894 832.089 520.595 831.977 519.487 831.501C516.787 830.343 516.225 827.909 515.375 825.347C506.723 832.606 500.539 834.454 490.358 828.534C485.149 824.071 482.516 820.309 481.241 813.292C478.845 800.1 487.401 783.201 502.77 785.991C507.71 786.888 511.464 789.592 515.286 792.727C515.294 785.018 512.245 774.351 518.973 769.425ZM506.162 821.323C513.522 817.849 518.08 810.175 514.027 802.415C512.585 799.702 510.102 797.693 507.148 796.85C505.58 796.416 503.457 796.452 501.823 796.522C493.97 800.131 489.601 807.753 494.117 815.919C495.59 818.59 498.117 820.519 501.081 821.236C502.831 821.649 504.406 821.536 506.162 821.323Z"/><path fill="#0066FE" transform="scale(1.47656 1.47656)" d="M445.504 785.597C459.279 784.634 456.011 790.096 462.849 791.015C479.396 767.795 474.563 823.971 473.985 828.721C473.537 832.406 465.612 834.107 463.349 826.65L463.181 826.077L463.034 825.953C435.07 850.818 411.482 796.08 445.504 785.597ZM451.767 821.843C455.88 821.105 458.733 819.814 461.268 816.285C463.329 813.38 464.158 809.779 463.574 806.266C463.036 802.955 461.127 800.026 458.317 798.196C456.145 796.779 454.368 796.46 451.86 796.068C447.617 796.94 444.719 798.067 442.228 801.904C440.329 804.884 439.709 808.502 440.506 811.945C441.802 817.773 445.932 821.224 451.767 821.843Z"/><path fill="#0066FE" transform="scale(1.47656 1.47656)" d="M373.991 771.036C381.63 770.722 382.559 773.19 385.374 779.938L395.522 804.905C398.355 811.735 401.643 818.768 403.581 825.895C404.88 830.674 397.93 833.248 394.639 831.052C391.313 828.832 389.829 822.393 388.683 818.739C386.056 818.749 383.265 818.645 380.624 818.588C375.467 818.594 370.311 818.566 365.155 818.505C363.489 823.362 359.822 835.07 352.653 831.123C346.752 828.288 351.608 817.953 353.805 813.666C358.492 804.523 366.603 775.984 373.991 771.036ZM367.826 808.804C370.512 808.67 373.086 808.518 375.782 808.572L384.911 808.637C383.55 805.22 377.716 789.703 376.161 788.269C373.464 795.147 370.685 801.992 367.826 808.804Z"/><path fill="#0066FE" transform="scale(1.47656 1.47656)" d="M637.301 785.164C654.368 784.798 652.91 807.453 652.648 819.161C652.562 822.976 651.691 828.403 648.766 831.016C647.943 831.751 646.294 832.278 645.211 831.841C636.55 826.953 644.038 806.279 637.931 798.478C637.098 797.159 635.434 795.463 633.709 795.497C630.124 795.566 626.986 798.134 624.57 800.503C620.532 808.361 626.42 834.027 615.404 831.286C609.307 829.769 611.031 809.906 610.747 804.962C610.639 803.074 610.609 790.62 611.962 788.099C617.639 782.357 621.781 785.676 622.477 792.86L622.533 793.499C626.95 788.49 630.673 786.006 637.301 785.164Z"/><path fill="#0066FE" transform="scale(1.47656 1.47656)" d="M413.419 770.42C413.589 770.414 413.759 770.402 413.928 770.402C416.164 770.395 418.31 770.408 419.924 772.181C422.565 775.08 421.973 818.497 421.634 824.326C421.429 827.859 420.865 829.068 418.178 831.442C415.523 831.623 411.129 831.645 410.885 828.058C409.792 811.968 410.121 795.54 410.177 779.399C410.194 774.695 409.965 773.641 413.419 770.42Z"/><path fill="#0066FE" transform="scale(1.47656 1.47656)" d="M594.629 785.47C596.372 785.495 600.495 785.76 600.841 787.927C602.919 800.928 601.865 815.444 601.212 828.612C601.131 830.243 598.577 831.514 597.376 832.145C590.787 831.321 590.59 827.995 590.35 822.017C589.924 811.399 589.497 800.29 591.145 789.775C591.519 787.39 592.756 786.607 594.629 785.47Z"/><path fill="#0066FE" transform="scale(1.47656 1.47656)" d="M593.922 768.979C602.133 769.566 606.645 775.509 598.099 780.654C589.924 780.033 585.922 774.286 593.922 768.979Z"/></svg>