<?xml version="1.0" encoding="utf-8" ?><svg xmlns="http://www.w3.org/2000/svg" xmlns:xlink="http://www.w3.org/1999/xlink" width="1024" height="1024" viewBox="0 0 1024 1024"><path fill="white" d="M0 0L1024 0L1024 1024L0 1024L0 0Z"/><path fill="#06F" d="M814.026 38.6693C820.452 37.8866 826.971 38.4348 833.177 40.2799C850.984 45.6796 862.222 61.3468 874.264 74.7449L910.586 115.143C928.932 135.109 947.067 155.268 964.987 175.617C969.461 180.652 981.193 192.73 983.875 197.793L983.989 227.471C983.919 227.571 983.847 227.67 983.778 227.771C979.334 234.341 949.576 254.828 941.165 261.085L864.223 318.191L767.6 390.522L700.515 441C689.152 449.594 676.93 459.589 665.276 467.576C668.762 472.492 678.835 483.384 683.172 488.352C696.645 503.797 710.202 519.168 723.842 534.464L839.976 666.413L876.575 707.887C880.964 712.912 887.64 720.456 891.593 725.42C892.851 727 898.02 741.779 899.136 744.828L910.426 774.929L953.595 889.887L974.187 944.686C977.874 954.386 981.726 964.014 985.219 973.787C989.138 984.644 981.76 988.636 972.54 983.282C896.752 939.275 821.858 893.739 745.976 849.879C742.556 847.901 740.354 847.362 740.738 843.515C737.947 838.223 716.382 814.847 711.661 809.59L659.351 751.055L563.766 643.783C548.926 627.21 532.877 608.295 517.489 592.602C466.616 631.504 413.827 669.786 362.351 708.062L183.063 842.964C176.557 847.811 174.076 847.089 168.327 841.075C137.111 808.42 106.455 775.22 75.3414 742.469L43.3465 708.714C38.8236 703.982 33.1819 699.695 29.5057 694.263C23.4082 685.254 25.9157 649.859 28.1063 638.472C29.7028 630.173 33.4319 619.982 39.51 613.91C44.8822 608.544 58.4392 599.705 65.1854 594.597L141.468 537.769L276.646 436.601L316.632 406.282C323.32 401.221 330.685 395.405 337.572 390.754C322.926 372.853 307.049 355.837 291.843 338.405C284.489 329.975 274.471 316.528 266.448 309.599C261.958 305.721 254.285 304.9 249.059 301.464C233.74 291.39 219.561 277.478 206.708 264.468C198.353 256.012 181.166 237.342 176.775 227.141C173.898 220.459 159.89 120.486 160.007 110.698C160.232 91.8527 168.752 73.6692 182.186 60.5777C196.983 46.1594 216.658 38.9203 237.188 39.3093C252.746 39.6041 265.334 45.7623 279.178 52.1277L299.315 61.1835L326.186 73.2517C340.233 79.5574 357.069 86.4952 367.571 97.981C384.013 115.964 400.825 140.971 411.369 162.891C414.108 168.549 416.493 174.371 418.512 180.324C420.167 185.142 422.757 195.785 425.352 199.093C429.581 204.484 435.567 210.681 440.212 216.068C456.537 235.275 473.442 253.982 490.904 272.161C505.993 259.818 525.504 246.403 541.304 234.591L653.879 150.512L744.627 82.5746C761.231 70.1354 778.009 57.0931 795.085 45.378C800.959 41.348 807.05 39.7005 814.026 38.6693Z"/><path fill="white" d="M789.782 67.7545C801.113 59.3373 809.907 51.3296 825.234 53.7029C830.872 54.5728 836.162 56.9786 840.523 60.6564C846.156 65.4283 855.535 76.6787 860.85 82.6891L887.801 112.705C912.346 140.481 939.837 170.643 965.071 197.687C945.544 210.877 924.169 227.763 905.118 241.815L781.837 333.596L700.334 394.72C681.931 408.384 658.245 425.429 640.624 440.071L577.618 369.598C566.99 357.581 555.195 343.063 544.445 331.565L545.051 330.983C548.111 330.63 551.455 330.051 553.417 327.393C554.538 325.876 554.839 323.616 554.466 321.797C553.843 318.759 520.56 279.165 515.438 273.083C530.404 261.544 546.94 248.96 562.515 238.178L604.536 284.65C610.281 291.038 615.89 297.646 621.783 303.854C624.762 306.992 629.854 306.486 632.676 303.484C635.802 300.157 634.818 296.664 632.243 293.433C627.949 288.046 623.255 283.171 618.686 278.029C605.448 262.501 586.331 244.042 574.817 227.69C579.087 225.139 582.946 222.504 586.898 219.488C596.406 212.232 606.303 205.399 615.595 197.87C626.444 209.135 636.595 221.23 646.957 232.952C651.084 237.62 655.168 243.346 659.914 247.303C661.311 248.468 663.093 249.495 664.984 249.383C667.467 249.234 669.565 247.691 671.044 245.759C672.191 244.262 672.744 242.597 672.403 240.708C671.749 237.083 633.288 194.85 627.587 188.652C641.014 178.241 656.017 166.747 669.93 156.991C682.014 171.849 695.669 186.448 708.342 200.903C711.753 204.795 715.611 204.784 719.532 201.714C722.498 199.463 722.685 195.887 720.531 192.921C715.87 186.503 710.296 180.573 705.036 174.602C697.252 165.788 689.559 156.894 681.957 147.922C692.232 140.653 702.467 132.762 712.642 125.275C717.706 121.549 725.175 116.584 729.799 112.783C749.036 134.105 767.238 156.638 786.998 177.509C792.393 183.208 803.531 175.789 798.429 168.798C792.17 160.932 785.203 153.382 778.527 145.846L741.339 103.855C752.99 94.5668 765.279 85.6776 777.264 76.78L801.274 104.047C805.106 108.426 811.166 115.886 815.434 119.464C821.325 124.402 831.558 116.935 824.673 108.532C813.441 94.8211 800.368 81.9228 789.782 67.7545Z"/><path fill="#06F" d="M855.786 135.153C903.728 130.776 932.92 199.938 883.974 211.379C871.827 213.266 861.318 209.932 851.219 203.01C840.761 195.581 831.477 183.951 829.371 171.03C826.303 152.203 837.31 137.808 855.786 135.153Z"/><path fill="#ACD3FC" d="M857.452 149.111C883.848 146.768 912.718 187.227 881.654 197.561C848.668 199.016 827.378 155.736 857.452 149.111Z"/><path fill="white" d="M347.271 401.325L444.845 511.372C457.493 525.642 470.593 539.509 483.151 553.861C485.035 556.015 486.938 558.171 488.68 560.443C483.229 564.427 471.573 573.578 466.479 576.696C442.109 596.373 414.129 615.852 388.845 634.72L238.476 746.67C219.026 761.172 199.242 775.358 179.97 790.139C172.224 782.29 164.003 773.147 156.399 765.035L111.591 717.23C88.7362 692.788 63.3227 666.626 41.6208 641.589C43.2653 636.683 44.7144 630.948 47.995 626.849C51.3654 622.638 85.7976 597.382 92.203 593.278C112.863 614.498 132.092 638.671 152.449 660.318C158.578 667.885 170.395 659.449 164.203 651.809C145.51 628.746 122.746 607.528 104.432 584.269C118.049 573.7 132.681 563.179 146.609 552.92C161.615 570.326 177.811 588.219 193.315 605.292C196.012 608.262 201.708 607.779 203.85 604.351C208.151 597.47 198.084 589.889 194.423 584.972C191.893 581.794 188.89 578.773 186.311 575.885C176.819 565.436 167.574 554.765 158.582 543.883C172.656 533.58 187.481 522.418 201.364 511.893C208.791 519.295 241.353 559.734 246.651 560.744C248.67 561.129 251.04 560.379 252.639 559.135C254.051 558.036 255.433 555.991 255.517 554.155C255.587 552.601 255.143 551.556 254.315 550.28C250.783 544.838 245.555 539.83 241.255 534.917C231.863 524.292 222.576 513.574 213.395 502.766C228.719 491.851 245.313 479.052 260.365 467.597L300.723 513.468C307.184 520.832 313.578 528.372 320.245 535.543C324.994 540.651 334.812 532.645 330.72 526.733C325.827 519.664 319.096 513.528 313.807 506.816C300.811 490.328 285.168 475.03 272.207 458.744C275.457 455.97 280.66 452.382 284.214 449.766C293.591 442.738 303.252 435.702 312.516 428.563C323.506 441.051 335.877 456.725 347.797 468.688C352.714 473.624 360.387 465.435 358.426 462.024C349.633 446.725 334.849 433.68 324.168 419.415C331.653 413.765 340.249 407.396 347.271 401.325Z"/><path fill="#ACD3FC" d="M347.271 401.325L444.845 511.372C457.493 525.642 470.593 539.509 483.151 553.861C485.035 556.015 486.938 558.171 488.68 560.443C483.229 564.427 471.573 573.578 466.479 576.696C459.749 570.534 453.147 566.208 445.945 560.858C433.843 551.869 421.48 543.773 409.128 535.217L351.186 495.074C334.386 483.758 317.644 472.356 300.962 460.868C295.422 457.108 289.681 453.587 284.214 449.766C293.591 442.738 303.252 435.702 312.516 428.563C323.506 441.051 335.877 456.725 347.797 468.688C352.714 473.624 360.387 465.435 358.426 462.024C349.633 446.725 334.849 433.68 324.168 419.415C331.653 413.765 340.249 407.396 347.271 401.325Z"/><path fill="#4196FD" d="M360.609 205.375C361.008 205.475 361.406 205.576 361.804 205.676C366.765 211.244 371.52 216.989 376.507 222.539C403.811 252.924 430.066 284.404 457.389 314.755L703.783 592.916L797.566 698.64C808.418 711.077 825.761 729.652 835.392 742.206C835.706 751.659 839.441 757.585 836.59 769.065C834.219 778.851 828.001 787.266 819.342 792.406C806.677 799.83 798.482 795.72 785.417 792.251C781.95 789.147 776.204 782.159 772.845 778.383C765.199 769.774 757.495 761.216 749.734 752.711L658.333 650.767L420.217 383.542L340.419 293.065C328.64 279.638 315.076 262.777 303.08 250.166C322.953 230.489 336.407 219.734 360.609 205.375Z"/><path fill="#4196FD" d="M293.112 261.99C293.282 262.154 293.452 262.317 293.622 262.48C300.398 270.595 307.511 278.63 314.484 286.551L368.372 348.062L529.01 529.326L678.768 697.055L738.09 762.344C745.515 770.501 752.877 778.715 760.177 786.985C765.581 792.997 771.049 798.96 776.275 805.159C780.812 810.542 780.636 819.63 779.699 826.284C778.988 831.324 777.122 835.008 773.551 838.571C768.201 838.746 764.464 838.792 759.333 837.376C753.219 833.751 736.28 814.042 730.302 807.532C706.218 781.305 682.916 754.187 659.188 727.597L394.71 431.916C371.148 405.481 347.784 378.638 324.162 352.244C306.716 332.75 288.487 309.551 270.371 291.113C277.208 281.495 285.039 270.467 293.112 261.99Z"/><path fill="#4196FD" d="M397.848 190.604C398.294 190.534 399.331 190.351 399.583 190.616C404.219 195.506 413.797 207.244 417.733 211.812L477.913 280.338C569.714 382.695 660.782 485.708 751.108 589.37C792.725 636.562 834.92 683.288 875.917 731.032C879.612 735.334 880.187 739.836 882.207 744.886C883.244 747.48 884.791 750.337 886.089 752.83C878.461 753.174 874.176 752.442 867.211 749.561C853.396 742.81 834.606 718.068 823.799 705.7L781.335 657.771L604.338 457.335L453.361 286.732L401.174 227.827C392.975 218.486 382.805 207.461 375.329 197.846C384.376 194.089 388.308 192.477 397.848 190.604Z"/><path fill="white" d="M852.961 757.567C864.41 765.805 877.948 770.218 891.926 766.437C900.829 792.671 911.167 819.521 921.01 845.477C927.524 862.653 934.744 883.489 942.129 900.015C939.195 902.325 935.965 904.77 933.163 907.193C926.562 897.763 920.098 888.238 913.773 878.622C911.169 874.722 898.424 849.905 891.969 867.946C889.388 875.16 920.325 909.79 920.455 915.47C919.779 916.021 919.088 916.623 918.373 917.111C914.911 919.55 908.825 924.118 906.064 927.129C871.038 905.117 834.218 885.259 799.092 863.344C792.65 859.324 786.075 855.583 779.748 851.36C793.486 842.163 797.333 826.684 794.968 811.023C799.09 811.741 801.337 811.753 805.461 811.613C825.938 810.197 842.55 795.669 849.767 776.831C852.466 769.789 852.799 765.03 852.961 757.567Z"/><path fill="#ACD3FC" d="M794.968 811.023C799.09 811.741 801.337 811.753 805.461 811.613C814.303 821.427 827.349 833.427 837.108 842.613L896.175 897.436C901.413 902.333 914.873 913.201 918.373 917.111C914.911 919.55 908.825 924.118 906.064 927.129C871.038 905.117 834.218 885.259 799.092 863.344C792.65 859.324 786.075 855.583 779.748 851.36C793.486 842.163 797.333 826.684 794.968 811.023Z"/><path fill="white" d="M176.207 101.829C180.151 84.9739 187.657 72.6245 202.409 63.5504C230.624 46.1953 250.885 55.7111 277.717 68.3356C294.407 76.1884 312.848 84.4592 329.699 91.5602L329.217 91.8319C325.095 94.1173 320.254 96.1598 315.963 98.2876C307.437 102.562 298.988 106.989 290.62 111.568C264.234 126.324 237.808 146.91 215.675 167.438C204.78 177.669 196.184 187.76 186.803 199.484C184.365 187.953 182.651 172.113 181.112 160.051C178.476 139.387 173.417 122.46 176.207 101.829Z"/><path fill="#ACD3FC" d="M186.803 199.484C184.365 187.953 182.651 172.113 181.112 160.051C178.476 139.387 173.417 122.46 176.207 101.829C176.989 106.64 180.271 113.33 182.334 117.809C191.286 137.243 201.754 151.479 215.675 167.438C204.78 177.669 196.184 187.76 186.803 199.484Z"/><path fill="white" d="M370.378 125.496C382.126 142.392 390.168 155.537 399.619 174.063C361.954 181.528 325.209 205.885 298.49 232.908C287.396 228.962 263.061 210.047 253.954 201.963C290.784 169.156 324.812 144.47 370.378 125.496Z"/><path fill="#ACD3FC" d="M499.185 570.923C500.441 572.081 506.55 579.641 508.092 581.434C502.366 585.176 495.036 591.121 489.286 595.399C475.807 605.39 462.406 615.485 449.084 625.683C429.355 640.803 408.553 655.608 388.559 670.66L189.075 820.043L182.975 824.412C183.111 817.905 183.093 811.279 183.134 804.762C195.446 797.722 203.984 790.205 215.308 782.105C238.266 765.683 260.613 748.166 283.281 731.416L499.185 570.923Z"/><path fill="#ACD3FC" d="M253.954 201.963C263.061 210.047 287.396 228.962 298.49 232.908C284.698 247.371 264.208 269.414 255.308 287.571C238.07 274.943 225.239 262.513 211.052 246.818C221.924 232.364 240.476 213.982 253.954 201.963Z"/><path fill="#ACD3FC" d="M968.895 213.963C969.93 214.928 969.667 219.644 969.693 221.212C959.46 229.803 944.99 239.825 934.124 247.803L884.388 284.886C822.516 330.691 760.891 376.829 699.517 423.299C694.405 427.193 657.947 455.475 654.711 456.275L653.605 455.388L650.536 451.288C726.626 393.241 803.227 335.868 880.331 279.174C908.206 258.795 940.329 232.565 968.895 213.963Z"/><path fill="white" d="M227.432 177.087C259.914 147.695 305.211 115.977 346.812 101.22C351.433 104.563 356.189 108.953 360.517 112.755C320.45 128.782 275.075 162.011 243.62 190.87C237.284 186.104 233 182.701 227.432 177.087Z"/><path fill="#ACD3FC" d="M48.9759 671.778C50.9679 673.36 55.9131 678.991 57.8726 681.094C63.6421 687.288 69.2569 693.659 75.1456 699.763C98.3722 724.041 121.28 748.622 143.862 773.5C152.229 782.567 160.884 791.324 169.244 800.436C168.833 806.09 168.939 813.735 168.865 819.541C154.406 805.511 140.615 789.561 126.649 774.993C106.367 753.835 85.9028 732.882 66.0547 711.315C60.3095 705.072 54.1664 698.13 47.7737 692.612C48.8335 685.776 48.8952 678.688 48.9759 671.778Z"/><path fill="#ACD3FC" d="M227.432 177.087C233 182.701 237.284 186.104 243.62 190.87C227.9 204.218 213.556 219.106 200.804 235.312C197.414 231.095 193.065 225.855 190.386 221.257C198.45 206.22 214.968 188.68 227.432 177.087Z"/><path fill="#4196FD" d="M946.434 914.545C947.976 916.27 963.257 956.673 964.534 961.002C959.307 957.695 953.412 954.497 947.99 951.427C938.721 945.698 929.781 940.519 920.518 934.567C926.459 929.057 939.525 919.718 946.434 914.545Z"/><path fill="white" d="M531.907 317.986C525.97 310.479 518.622 303.519 512.229 296.4C509.33 293.172 501.959 286.8 501.735 282.613L502.604 281.99C506.433 283.873 528.194 312.049 532.927 317.59L531.907 317.986Z"/><path fill="#ACD3FC" d="M532.927 317.59L545.051 330.983L544.445 331.565C540.1 327.043 535.939 322.795 531.907 317.986L532.927 317.59Z"/><path fill="#06F" d="M571.077 769.498C582.662 767.944 579.99 778.785 580.158 786.856C580.412 799.138 580.096 811.641 579.909 823.919C579.796 831.395 575.235 833.621 569.353 829.687C568.403 829.077 568.571 827.251 568.638 826.125L568.149 825.744C559.505 832.145 554.768 834.565 544.16 829.806C519.598 812.838 542.078 767.682 568.019 792.652C568.276 784.676 566.283 775.141 571.077 769.498Z"/><path fill="white" d="M553.517 796.557C570.56 795.041 574.214 814.65 559.466 821.833C557.524 821.95 555.624 821.843 553.759 821.217C550.381 820.108 547.591 817.688 546.016 814.5C544.503 811.393 544.301 807.809 545.453 804.551C547.05 800.115 549.521 798.485 553.517 796.557Z"/><path fill="#06F" d="M518.969 769.458C519.806 769.451 520.672 769.433 521.501 769.55C523.033 769.766 524.819 770.715 525.571 772.099C527.177 775.054 526.918 816.25 526.423 822.673C526.255 824.847 525.857 827.234 525.052 829.266C524.591 830.43 524.127 830.983 522.956 831.488C521.62 832.065 520.092 831.813 518.807 831.223C516.32 830.081 516.319 827.937 515.395 825.65C506.545 832.39 501.641 834.646 490.975 829.01C490.556 828.703 490.141 828.39 489.73 828.072C468.927 811.847 487.871 768.624 515.37 792.924C515.489 786.592 514.367 780.009 515.338 773.966C515.712 771.639 517.118 770.662 518.969 769.458Z"/><path fill="white" d="M501.547 796.548C504.052 796.382 506.31 796.194 508.679 797.19C511.509 798.412 513.683 800.783 514.654 803.709C517.275 811.373 513.55 818.866 505.902 821.521C503.969 821.595 502.032 821.676 500.173 821.053C497.241 820.049 494.829 817.92 493.468 815.135C491.837 811.724 491.708 807.787 493.11 804.276C494.885 799.872 497.52 798.34 501.547 796.548Z"/><path fill="#06F" d="M446.063 785.588C460.065 784.881 456.979 790.538 463.31 791.593C463.404 791.229 463.512 790.867 463.596 790.5C463.729 789.916 463.76 789.407 464.045 788.86C464.623 787.751 465.763 786.932 466.889 786.456C468.311 785.854 469.835 785.812 471.22 786.553C472.853 787.426 473.913 789.365 474.31 791.1C475.104 794.572 474.941 827.952 473.809 829.439C472.73 830.854 471.117 831.601 469.369 831.725C467.609 831.85 466.24 831.272 464.964 830.089C463.544 828.773 463.531 827.351 463.436 825.545C463.425 825.34 463.418 825.134 463.41 824.929C457.748 832.467 448.228 834.77 439.996 829.84C428.68 823.062 425.592 805.605 432.451 794.678C435.734 789.449 440.145 786.833 446.063 785.588Z"/><path fill="white" d="M450.931 796.11C467.147 795.984 468.585 818.32 452.933 822.019C450.76 821.836 449.171 821.74 447.209 820.725C444.021 819.086 441.648 816.205 440.65 812.762C438.178 804.417 442.67 797.923 450.931 796.11Z"/><path fill="#06F" d="M374.475 771C382.125 770.401 383.018 774.45 385.509 780.789C390.934 794.638 396.93 807.818 402.41 821.696C404.735 827.582 404.343 831.769 396.635 831.801C392.115 831.82 389.969 822.706 388.678 818.866L380.625 818.709L364.906 818.797C363.526 822.395 361.639 828.82 358.412 830.995C355.476 832.973 351.512 830.91 349.77 828.13C349.048 824.774 352.215 817.489 353.609 814.224C359.318 800.852 364.321 787.054 370.562 773.943C371.039 772.942 373.519 771.552 374.475 771Z"/><path fill="white" d="M376.249 787.803C377.69 789.256 383.658 805.346 384.875 808.48L377.071 808.474L367.989 808.456C370.809 801.598 373.563 794.714 376.249 787.803Z"/><path fill="#06F" d="M622.574 793.193C635.386 779.743 651.588 783.678 652.431 802.87C652.667 808.252 654.724 831.511 646.78 831.861C638.824 832.211 640.965 815.368 641 809.91C640.886 805.408 640.904 800.955 637.27 797.689C635.861 796.423 633.965 795.618 632.054 795.741C630.195 795.861 628.472 796.822 627.049 797.973C617.072 806.042 626.616 824.374 620.172 830.482C619.326 831.285 618.277 831.58 617.13 831.535C615.192 831.458 613.316 830.385 612.161 828.848C610.308 826.381 610.573 793.927 611.422 789.675C611.861 787.472 613.725 786.567 615.48 785.48C621.258 785.557 621.864 788.228 622.574 793.193Z"/><path fill="#06F" d="M413.712 770.559C414.5 770.568 415.287 770.598 416.072 770.648C417.705 770.768 419.383 771.197 420.392 772.612C421.847 774.654 422.349 822.55 421.453 827.168C420.998 829.516 419.349 830.448 417.526 831.752C416.688 831.693 415.853 831.599 415.022 831.471C413.498 831.222 412.057 830.577 411.274 829.154C410.335 827.446 409.589 778.3 410.579 774.137C411.009 772.33 412.264 771.498 413.712 770.559Z"/><path fill="#06F" d="M595.07 785.54C598.546 785.695 601.551 786.795 601.654 790.841C601.965 803.092 601.882 815.572 601.354 827.813C601.27 829.76 598.692 831.08 597.258 831.917C595.438 831.622 591.434 830.865 591.095 828.516C589.287 816.004 589.645 801.316 590.798 788.716C590.934 787.226 593.907 786.009 595.07 785.54Z"/><path fill="#06F" d="M593.878 769.008C602.197 768.883 606.345 775.684 598.085 780.539C589.379 780.784 586.188 773.532 593.878 769.008Z"/></svg>